<svg width="26" height="32" viewBox="0 0 26 32" fill="none" xmlns="http://www.w3.org/2000/svg">
<path fill-rule="evenodd" clip-rule="evenodd" d="M0 9C0 4.0625 3.98437 0 9.02013 0H16.4799C21.4615 0 25.5 4.01832 25.5 9C25.4941 11.683 24.3223 13.9941 22.6914 15.5312L20.9824 17.2344C23.4712 18.6864 25.4794 20.9645 25.4794 24.0537C25.4794 28.6795 21.7294 32 17.1035 32H4.5V16.7969C1.83594 15.2422 0 12.3346 0 9ZM9.02013 2.5C5.375 2.5 2.5 5.42969 2.5 9C2.5 12.5703 5.375 15.5 9.02013 15.5H12.1258L10.3984 24.2344L20.9355 13.752C22.1426 12.627 23 10.9252 23 9C23 5.375 20.0312 2.46094 16.4799 2.5H9.02013Z" fill="#f97316"/>
</svg>  