<svg width="126" height="48" viewBox="0 0 126 48" fill="none" xmlns="http://www.w3.org/2000/svg">
<path d="M71.0916 36.46C70.4808 36.7073 69.8118 36.8309 69.0992 36.8309C68.3866 36.8309 67.7467 36.7073 67.1431 36.4673C66.5323 36.2273 65.9942 35.871 65.5288 35.4202C65.0707 34.9693 64.7071 34.4167 64.4453 33.7913C64.1836 33.166 64.0527 32.4606 64.0527 31.6971V17.3865L59.7769 17.4156V31.7335C59.7769 33.5586 60.1696 35.1729 60.955 36.5182C61.733 37.8634 62.8383 38.9251 64.2272 39.6668C65.6233 40.4085 67.2595 40.7866 69.0919 40.7866C70.9244 40.7866 72.5677 40.4085 73.9566 39.6668C75.3455 38.9251 76.4508 37.8634 77.2289 36.5182C78.0069 35.1657 78.4069 33.5586 78.4069 31.7335V17.3865H74.1384V31.6971C74.1384 32.4534 74.0075 33.1514 73.753 33.7768C73.4985 34.4021 73.1422 34.9475 72.6841 35.4056C72.2332 35.8565 71.6879 36.2128 71.0843 36.4673L71.0916 36.46Z" fill="#F8FAFC"/>
<path d="M97.4074 27.2251C97.2111 26.4761 96.8693 25.7416 96.3967 25.0436C95.9313 24.3528 95.2696 23.771 94.4261 23.3202C93.5826 22.8693 92.4845 22.6367 91.1466 22.6367C89.4741 22.6367 88.0634 23.0075 86.9654 23.7274C86.4564 24.0619 85.991 24.4618 85.591 24.9054L85.4601 25.0508V23.1457H81.7298V40.2994H86.0055V31.5953C86.0055 30.5118 86.1291 29.632 86.3691 28.9702C86.6091 28.3085 86.929 27.7995 87.3071 27.4577C87.6853 27.116 88.0997 26.8833 88.536 26.7597C88.9651 26.6433 89.3795 26.5779 89.7577 26.5779C90.703 26.5779 91.4447 26.796 91.961 27.2178C92.4773 27.6395 92.8554 28.1776 93.0808 28.803C93.3062 29.4284 93.4444 30.0537 93.488 30.6718C93.5317 31.2899 93.5535 31.7989 93.5535 32.1916V40.2849H97.8219V30.65C97.8219 30.3664 97.8001 29.901 97.7565 29.2757C97.7128 28.6503 97.5892 27.9522 97.3929 27.196L97.4074 27.2251Z" fill="#F8FAFC"/>
<path d="M105.631 18.7026C105.631 17.4135 104.586 16.3684 103.297 16.3684C102.008 16.3684 100.963 17.4135 100.963 18.7026V18.8044C100.963 20.0935 102.008 21.1386 103.297 21.1386C104.586 21.1386 105.631 20.0935 105.631 18.8044V18.7026Z" fill="#F8FAFC"/>
<path d="M101.196 40.3067H105.399V23.1529L101.196 24.4182V40.3067Z" fill="#F8FAFC"/>
<path d="M28.5959 0C37.6345 0.916225 46.0987 4.79927 52.665 10.9365L27.9778 46.2476L28.5959 0Z" fill="#EA580C"/>
<path d="M6.63562 14.347C9.30431 12.5727 12.2784 11.162 15.5216 10.224C18.7647 9.28592 22.1533 8.86416 25.4182 8.96596L24.9238 46.3058L6.63562 14.347Z" fill="#F97316"/>
<path d="M8.03185 22.9565L20.6772 45.0477L1.00018 34.1693C2.26545 29.8791 4.69417 25.9815 8.03185 22.9492V22.9565Z" fill="#FB923C"/>
<path d="M120.139 33.7768C120.117 34.0385 119.993 35.3184 118.924 36.1764C118.066 36.8599 117.121 36.8672 116.634 36.8672C115.303 36.8672 114.278 36.3873 113.601 35.4347C112.925 34.4894 112.583 33.2459 112.583 31.7262C112.583 30.759 112.721 29.8792 113.005 29.1157C113.289 28.3449 113.732 27.7195 114.328 27.2687C114.925 26.8178 115.703 26.5851 116.634 26.5851C117.012 26.5851 117.383 26.6433 117.732 26.7524C117.797 26.7742 118.335 26.9487 118.837 27.3486C119.848 28.1413 120.146 29.3483 120.226 29.7047H124.516C124.516 29.1302 124.48 28.7448 124.392 28.3012C124.131 26.9705 123.505 26.0034 123.091 25.4726C122.938 25.2762 122.495 24.7236 121.782 24.1928C120.415 23.1747 118.706 22.6584 116.692 22.6584C114.954 22.6584 113.42 23.0511 112.147 23.8365C110.874 24.6145 109.871 25.698 109.173 27.0578C108.475 28.4176 108.118 29.9882 108.118 31.7189C108.118 33.4495 108.46 34.9911 109.137 36.3509C109.813 37.7107 110.794 38.8015 112.06 39.5868C113.325 40.3794 114.859 40.7793 116.634 40.7793C117.615 40.7793 119.695 40.7648 121.651 39.3032C122.211 38.8887 123.912 37.4926 124.392 35.1729C124.487 34.7221 124.509 34.3367 124.516 33.7695H120.146L120.139 33.7768Z" fill="#F8FAFC"/>
</svg>
