<?xml version="1.0" encoding="utf-8"?>
<!-- Generator: Adobe Illustrator 13.0.0, SVG Export Plug-In . SVG Version: 6.00 Build 14948)  -->
<!DOCTYPE svg PUBLIC "-//W3C//DTD SVG 1.1//EN" "http://www.w3.org/Graphics/SVG/1.1/DTD/svg11.dtd">
<svg version="1.1" id="Ebene_1" xmlns="http://www.w3.org/2000/svg" xmlns:xlink="http://www.w3.org/1999/xlink" x="0px" y="0px"
	 width="183.8px" height="79.4px" viewBox="0 0 183.8 79.4" style="enable-background:new 0 0 288.8 79.4;" xml:space="preserve">
<style type="text/css">
<![CDATA[
	.st0{fill:#fdba74;}
	.st1{fill:#FFFFFF;}
	.st2{fill:#fb923c;}
]]>
</style>
<g>
	<path class="st2" d="M39.7,79.4c21.9,0,39.7-17.8,39.7-39.7C79.4,17.8,61.6,0,39.7,0S0,17.8,0,39.7C0,61.6,17.8,79.4,39.7,79.4
		L39.7,79.4z"/>
	<path class="st0" d="M39.7,79.4c15.3,0,27.6-12.4,27.6-27.6c0-15.3-12.4-27.6-27.6-27.6C24.4,24.1,12,36.5,12,51.7
		C12,67,24.4,79.4,39.7,79.4L39.7,79.4z"/>
	<path class="st1" d="M39.7,79.4c9.4,0,17-7.6,17-17c0-9.4-7.6-17-17-17c-9.4,0-17,7.6-17,17C22.7,71.8,30.3,79.4,39.7,79.4
		L39.7,79.4z"/>
	<path class="st1" d="M91,49.8h5V39.5h0.1l8,10.3h6.7l-9.2-11l8.7-9.2h-6.5L96.1,38V18h-5V49.8L91,49.8z M132,29.6h-5v11c0,2.7-1.3,5.1-4.6,5.1
		c-3.5,0-3.7-3.7-3.7-5.9V29.6h-5v12.7c0,4.1,1.9,7.9,7.4,7.9c3.4,0,5.3-1.7,6.2-3.7h0.1v3.2h4.8V29.6L132,29.6z M137.8,49.8h5V18
		h-5V49.8L137.8,49.8z M150.4,33.9v9.2c0,4.7,1.3,7.1,6.6,7.1c1.2,0,2.9-0.2,4-0.7v-4.2c-0.6,0.5-1.8,0.6-2.7,0.6
		c-2.2,0-2.8-1.3-2.8-3.3v-8.8h5.5v-4.3h-5.5v-5.8h-5v5.8h-4.2v4.3H150.4L150.4,33.9z M183.3,29.6h-5v11c0,2.7-1.3,5.1-4.6,5.1
		c-3.5,0-3.7-3.7-3.7-5.9V29.6h-5v12.7c0,4.1,1.9,7.9,7.4,7.9c3.4,0,5.3-1.7,6.2-3.7h0.1v3.2h4.8V29.6L183.3,29.6z 
		 "/>
</g>
</svg>
